<?xml version="1.0" encoding="iso-8859-1"?>
<!-- Generator: Adobe Illustrator 19.0.0, SVG Export Plug-In . SVG Version: 6.00 Build 0)  -->
<svg version="1.1" id="Layer_1" xmlns="http://www.w3.org/2000/svg" xmlns:xlink="http://www.w3.org/1999/xlink" x="0px" y="0px"
	 viewBox="0 0 512 512" style="enable-background:new 0 0 512 512;" xml:space="preserve">
<path style="fill:#C9CFDE;" d="M505.505,408.198L293.767,56.972c-8.106-13.509-22.515-20.114-37.524-20.114
	c-15.01,0-30.019,6.605-38.126,20.114L6.382,408.198c-8.406,13.81-8.406,30.621-0.601,44.43
	c8.106,14.108,22.515,22.515,38.424,22.515h423.475c16.209,0,30.621-8.406,38.424-22.515
	C514.209,438.818,513.909,422.007,505.505,408.198z"/>
<path style="fill:#B8BFCC;" d="M256.243,475.142h211.437c16.209,0,30.621-8.406,38.424-22.515c8.106-13.81,7.805-30.621-0.599-44.43
	L293.767,56.972c-8.106-13.509-22.515-20.114-37.524-20.114V475.142z"/>
<g>
</g>
<g>
</g>
<g>
</g>
<g>
</g>
<g>
</g>
<g>
</g>
<g>
</g>
<g>
</g>
<g>
</g>
<g>
</g>
<g>
</g>
<g>
</g>
<g>
</g>
<g>
</g>
<g>
</g>
</svg>
