<svg height="464pt" viewBox="-24 0 464 464.00339" width="464pt" xmlns="http://www.w3.org/2000/svg"><path d="m328 0h-280c-26.507812 0-48 21.492188-48 48v392h352v-433.519531zm0 0" fill="#ffeb99"/><path d="m95.28125 40h280c-1.570312-9.84375-6.25-18.929688-13.359375-25.917969-8.964844-9.046875-21.183594-14.1210935-33.921875-14.082031h-280c12.738281-.0390625 24.957031 5.035156 33.921875 14.082031 7.109375 6.988281 11.789063 16.074219 13.359375 25.917969zm0 0" fill="#b28141"/><path d="m40 80h120v80h-120zm0 0" fill="#ffa733"/><path d="m416 336c.019531 47.992188-26.816406 91.957031-69.507812 113.878906-42.695313 21.917969-94.0625 18.105469-133.050782-9.878906-2.71875-1.917969-5.359375-4-7.917968-6.078125-50.234376-42.164063-60.476563-115.472656-23.71875-169.789063 36.757812-54.3125 108.625-72.054687 166.4375-41.09375 1.28125.722657 2.480468 1.441407 3.757812 2.160157 39.601562 22.84375 64 65.085937 64 110.800781zm0 0" fill="#ffda44"/><path d="m321.945312 336 30.054688-30.054688 15.195312-15.199218-15.195312-15.195313-18.742188-18.75-45.257812 45.253907-45.253906-45.253907-33.9375 33.945313 45.25 45.253906-45.25 45.257812 33.9375 33.933594 45.253906-45.246094 45.257812 45.246094 18.742188-18.742187 15.195312-15.191407-15.195312-15.203124zm0 0" fill="#ff5023"/><g fill="#f1f2f2"><path d="m192 96h128v16h-128zm0 0"/><path d="m192 136h128v16h-128zm0 0"/><path d="m32 200h136v16h-136zm0 0"/><path d="m32 240h104v16h-104zm0 0"/><path d="m32 280h104v16h-104zm0 0"/></g></svg>